<?xml version="1.0" standalone="no"?>
<!DOCTYPE svg PUBLIC "-//W3C//DTD SVG 20010904//EN"
 "http://www.w3.org/TR/2001/REC-SVG-20010904/DTD/svg10.dtd">
<svg version="1.0" xmlns="http://www.w3.org/2000/svg"
 width="1024.000000pt" height="1024.000000pt" viewBox="0 0 1024.000000 1024.000000"
 preserveAspectRatio="xMidYMid meet">

<g transform="translate(0.000000,1024.000000) scale(0.100000,-0.100000)"
fill="#000000" stroke="none">
<path d="M5107 8025 c-32 -1303 -41 -3645 -19 -4760 23 -1155 26 -1260 33
-1220 10 54 26 676 45 1780 21 1198 14 2261 -26 3915 -15 589 -24 667 -33 285z"/>
<path d="M6670 6065 c0 -80 -2 -145 -5 -145 -2 0 -21 11 -41 25 -42 28 -123
55 -168 55 -16 0 -56 -7 -89 -17 -154 -43 -248 -220 -202 -378 29 -102 101
-181 186 -205 86 -25 203 -6 281 45 l37 24 3 -32 c3 -30 6 -32 44 -35 37 -3
42 0 45 20 2 13 3 195 1 406 l-2 382 -45 0 -45 0 0 -145z m-93 -201 c78 -63
102 -130 82 -225 -35 -161 -264 -216 -363 -86 -79 103 -46 270 65 326 35 18
57 21 111 19 57 -3 73 -8 105 -34z"/>
<path d="M6014 6187 c-3 -8 -4 -34 -2 -58 2 -37 7 -45 29 -53 14 -5 38 -6 53
-2 26 6 27 9 24 64 l-3 57 -48 3 c-34 2 -49 -1 -53 -11z"/>
<path d="M2675 6123 c-61 -7 -77 -15 -120 -54 -48 -45 -22 -40 -355 -59 -295
-18 -589 -39 -674 -51 -102 -13 -175 -50 -247 -126 -88 -92 -132 -160 -125
-194 4 -20 -9 -76 -39 -169 -24 -77 -54 -189 -66 -248 -22 -105 -22 -113 -10
-342 6 -129 14 -252 17 -273 4 -32 1 -39 -20 -48 -66 -30 -56 -155 16 -199 29
-17 154 -35 181 -24 8 3 19 16 25 30 l12 24 163 0 c167 0 187 4 187 40 0 30
30 119 46 135 10 10 34 15 70 15 l56 0 -35 -40 c-56 -66 -72 -153 -42 -241 49
-144 213 -211 346 -141 154 80 191 273 76 400 l-20 22 52 0 c41 0 57 -5 76
-24 22 -22 55 -109 55 -146 0 -40 6 -40 547 -40 307 0 530 4 541 9 9 6 29 12
43 15 22 5 32 19 59 86 46 114 102 198 145 216 41 17 163 19 236 3 71 -15 128
-69 177 -168 21 -42 43 -90 49 -108 20 -56 49 -66 181 -65 120 1 307 23 354
41 39 15 51 45 44 109 -4 31 -12 62 -18 69 -16 19 -45 16 -68 -9 -11 -12 -22
-19 -25 -16 -3 2 2 45 11 94 28 155 -2 379 -71 533 -31 68 -45 83 -106 114
-41 20 -49 32 -112 156 -62 120 -68 136 -57 157 7 13 22 24 33 26 63 9 35 101
-58 194 -54 55 -70 65 -141 87 -44 14 -107 30 -139 36 -97 18 -406 49 -613 62
-183 12 -193 14 -207 36 -26 40 -83 60 -199 72 -107 11 -170 12 -231 4z m282
-49 c30 -3 63 -14 78 -25 27 -22 26 -39 -3 -34 -9 2 -117 4 -239 4 -138 1
-223 5 -223 11 0 18 49 42 102 50 51 8 177 5 285 -6z m708 -133 c341 -41 417
-63 494 -140 45 -45 81 -98 81 -119 0 -11 -139 -13 -737 -12 -406 0 -1079 -2
-1495 -6 -529 -5 -758 -4 -758 3 0 19 85 127 130 166 23 20 64 43 89 51 54 18
341 46 816 80 28 2 309 2 625 1 522 -2 591 -4 755 -24z m-1027 -539 l-3 -237
-764 -3 -763 -2 7 46 c8 57 91 358 108 393 l12 26 180 0 c155 0 179 -2 176
-15 -20 -66 -8 -342 16 -365 12 -13 64 -15 313 -15 262 0 299 2 304 16 12 31
7 349 -6 362 -9 9 -94 13 -307 14 l-296 3 310 5 c171 3 401 6 513 7 l204 3 -4
-238z m173 72 c-2 -88 0 -170 3 -182 11 -35 58 -42 272 -42 l204 0 0 -45 0
-45 -307 2 -308 3 -3 225 c-1 123 0 230 3 238 3 9 23 12 72 10 l68 -3 -4 -161z
m557 -72 c2 -205 0 -233 -13 -239 -9 -3 -20 -2 -25 3 -5 5 -10 114 -12 242
l-3 233 25 -3 25 -3 3 -233z m168 223 c-17 -7 -33 -21 -37 -31 -4 -11 -8 -83
-8 -161 -1 -116 2 -144 15 -157 8 -9 16 -17 17 -18 1 -1 148 -4 327 -7 l325
-6 0 -25 c0 -18 6 -26 22 -28 18 -3 24 4 32 35 6 21 11 47 11 59 0 35 -30 123
-75 220 -35 74 -50 96 -77 110 -26 14 -29 19 -15 22 32 7 65 -7 73 -31 3 -12
35 -84 69 -159 67 -143 122 -295 111 -305 -3 -3 -36 0 -73 6 -42 8 -213 15
-445 18 l-377 6 -3 26 c-2 14 -2 119 0 234 l3 207 67 -1 c64 -1 66 -1 38 -14z
m212 8 c-32 -2 -86 -2 -120 0 -35 2 -9 3 57 3 66 0 94 -1 63 -3z m290 0 c-10
-2 -26 -2 -35 0 -10 3 -2 5 17 5 19 0 27 -2 18 -5z m-780 -167 c2 -108 -1
-163 -9 -172 -9 -11 -51 -14 -194 -14 -101 0 -190 3 -199 6 -14 5 -16 30 -16
168 0 90 3 166 7 170 4 3 97 5 207 4 l201 -3 3 -159z m680 -32 l3 -141 -164
-7 c-90 -4 -180 -5 -200 -1 -35 7 -36 8 -43 63 -7 56 1 200 12 211 7 8 204 18
309 17 l80 -1 3 -141z m96 131 c3 -8 8 -56 12 -107 6 -93 22 -138 49 -138 7 0
17 -4 20 -10 4 -6 -17 -10 -54 -10 l-61 0 0 140 c0 113 3 140 14 140 8 0 16
-7 20 -15z m-1877 -182 c-2 -37 -3 -9 -3 62 0 72 1 102 3 68 2 -34 2 -93 0
-130z m30 30 c-2 -32 -3 -8 -3 52 0 61 1 87 3 58 2 -29 2 -78 0 -110z m-548 5
c0 -111 -3 -137 -11 -115 -9 27 -2 257 8 257 2 0 4 -64 3 -142z m2754 -182
c26 -10 39 -28 65 -83 18 -38 42 -108 54 -156 l23 -86 -22 -23 c-30 -32 -43
-71 -43 -128 0 -41 5 -55 32 -85 29 -34 31 -39 22 -83 -8 -41 -12 -47 -36 -50
l-28 -3 0 68 c0 153 -47 437 -95 580 -24 69 -23 71 28 49z m-1763 -439 c0
-279 1 -295 20 -312 34 -31 193 -37 512 -19 87 5 121 11 130 22 10 11 14 92
18 306 5 274 6 291 24 294 10 2 22 -2 27 -10 5 -7 9 -151 9 -320 l0 -308 -22
-5 c-13 -3 -236 -4 -497 -3 l-473 3 -23 64 c-13 35 -38 78 -55 95 l-30 31
-326 0 -326 0 -33 -38 c-18 -20 -38 -58 -45 -82 l-13 -45 -128 0 c-70 0 -130
4 -134 9 -3 5 -34 19 -70 31 -50 17 -66 27 -69 43 -9 43 -29 506 -23 521 6 14
86 16 767 16 l760 0 0 -293z m648 276 c-2 -14 -14 -16 -65 -14 -38 1 -64 -2
-68 -9 -12 -19 16 -30 78 -30 l57 0 0 -243 c0 -194 -3 -247 -14 -263 -13 -18
-31 -19 -268 -22 -167 -3 -266 0 -290 8 l-38 11 0 283 c0 155 3 286 7 289 3 4
141 7 305 7 275 0 299 -1 296 -17z m1025 -1 c21 -5 41 -13 44 -16 3 -3 17 -68
30 -143 26 -152 39 -316 29 -356 -7 -28 -14 -30 -187 -41 l-77 -6 -33 66 c-44
85 -81 130 -132 156 -37 20 -61 23 -208 26 -222 5 -225 4 -299 -142 l-40 -78
0 276 0 277 418 -4 c253 -2 432 -8 455 -15z m244 -314 c-2 -13 -4 -3 -4 22 0
25 2 35 4 23 2 -13 2 -33 0 -45z m-2521 -204 c18 -9 38 -22 45 -30 8 -10 -2
-8 -32 6 -59 26 -124 25 -173 -3 -56 -32 -79 -67 -84 -132 -6 -70 16 -124 67
-162 32 -25 44 -28 109 -27 39 0 66 -3 60 -8 -23 -14 -112 -8 -154 11 -44 20
-74 56 -92 110 -21 60 -15 105 21 157 54 82 154 115 233 78z m-961 -73 c3 -6
27 -13 53 -17 73 -11 96 -23 42 -23 -52 0 -112 18 -118 37 -4 14 14 17 23 3z
m970 -15 c50 -51 37 -149 -26 -181 -37 -20 -94 -19 -124 1 -51 33 -51 138 0
182 38 32 117 31 150 -2z m2569 4 c-6 -6 -55 -12 -110 -15 -89 -4 -93 -3 -39
5 33 6 64 12 70 14 5 2 28 5 50 5 26 1 36 -2 29 -9z m-306 -27 c-21 -2 -57 -2
-80 0 -24 2 -7 4 37 4 44 0 63 -2 43 -4z m-2198 -176 c0 -2 -10 -12 -22 -23
l-23 -19 19 23 c18 21 26 27 26 19z"/>
<path d="M1305 5020 c3 -5 8 -10 11 -10 2 0 4 5 4 10 0 6 -5 10 -11 10 -5 0
-7 -4 -4 -10z"/>
<path d="M1600 4890 c0 -87 4 -140 10 -140 6 0 10 53 10 140 0 87 -4 140 -10
140 -6 0 -10 -53 -10 -140z"/>
<path d="M2492 4607 c-19 -22 -10 -57 14 -57 12 0 36 -3 53 -6 29 -6 31 -5 31
23 0 16 -5 34 -12 41 -16 16 -73 15 -86 -1z"/>
<path d="M3533 5044 c-9 -24 15 -34 79 -34 97 0 82 32 -20 43 -42 5 -54 3 -59
-9z"/>
<path d="M3466 4895 c5 -114 9 -132 26 -148 27 -23 34 -15 13 16 -10 17 -18
58 -22 128 -3 57 -10 111 -14 119 -5 9 -7 -40 -3 -115z"/>
<path d="M5733 5984 c-29 -9 -70 -32 -93 -51 l-40 -35 0 29 c0 45 -12 55 -61
51 l-44 -3 0 -285 0 -285 48 -3 47 -3 0 139 c0 152 11 208 55 274 37 56 109
88 197 88 l68 0 15 37 c11 25 12 40 5 47 -17 17 -140 17 -197 0z"/>
<path d="M6992 5971 c-71 -25 -145 -97 -172 -169 -25 -65 -26 -161 -3 -228 23
-68 102 -145 171 -169 80 -26 190 -18 265 19 70 34 145 119 126 142 -22 26
-76 17 -118 -21 -21 -19 -55 -42 -74 -50 -74 -31 -193 -10 -239 41 -24 27 -50
93 -44 110 4 11 55 14 253 16 l248 3 -2 53 c-3 69 -51 161 -109 209 -77 63
-197 80 -302 44z m185 -82 c54 -20 130 -115 109 -137 -4 -4 -88 -8 -187 -10
-205 -4 -209 -2 -165 72 43 74 155 108 243 75z"/>
<path d="M6017 5973 c-12 -11 -8 -532 3 -554 12 -22 72 -27 87 -6 11 14 10
538 -1 556 -8 12 -78 16 -89 4z"/>
<path d="M7845 5257 c-3 -6 -4 -183 -3 -392 l3 -380 48 -3 c33 -2 47 1 48 10
1 7 2 85 3 173 1 186 12 219 84 270 37 26 53 30 107 30 56 0 68 -4 102 -31 55
-45 62 -74 62 -275 1 -191 1 -189 56 -189 44 0 48 17 43 217 -5 204 -13 241
-66 296 -68 73 -196 97 -290 57 -28 -12 -57 -28 -63 -36 -6 -8 -18 -14 -25
-14 -11 0 -14 28 -14 140 l0 140 -45 0 c-27 0 -48 -5 -50 -13z"/>
<path d="M5468 5123 l-3 -68 -52 -3 -53 -3 0 -38 c0 -44 10 -51 71 -51 l39 0
0 -167 c0 -181 8 -227 45 -271 38 -46 158 -71 172 -36 9 23 -14 64 -36 64 -11
0 -33 11 -48 24 l-28 24 -3 181 -3 180 25 7 c15 3 42 3 61 0 l35 -7 -23 -37
c-75 -120 -61 -277 34 -371 59 -58 131 -86 224 -86 101 0 173 32 237 105 l43
49 43 -49 c50 -58 96 -84 172 -98 70 -13 148 -1 207 32 57 32 63 32 63 0 0
-97 -60 -182 -143 -202 -101 -26 -175 -10 -232 48 -33 34 -45 40 -81 40 -52 0
-58 -7 -38 -46 23 -45 64 -83 119 -112 45 -24 61 -27 155 -27 95 0 111 3 162
28 34 16 70 45 89 68 61 77 63 94 67 431 l3 307 -25 7 c-43 10 -76 -3 -76 -30
l0 -25 -61 32 c-129 67 -266 43 -369 -63 l-55 -57 -34 44 c-91 118 -283 146
-416 62 -25 -16 -48 -29 -50 -29 -3 0 -5 16 -5 35 l0 34 -62 3 -63 3 -3 68 -3
67 -49 0 -49 0 -3 -67z m576 -190 c81 -56 108 -164 65 -263 -35 -83 -138 -134
-233 -116 -50 10 -115 61 -137 109 -35 79 -17 190 42 247 71 67 185 77 263 23z
m532 13 c62 -29 101 -77 113 -140 16 -86 -15 -168 -80 -210 -79 -52 -157 -56
-235 -11 -169 98 -86 384 111 385 22 0 63 -11 91 -24z"/>
<path d="M7500 5120 l0 -70 -50 0 -50 0 0 -39 c0 -43 10 -51 66 -51 l35 0 -3
-72 -3 -73 -30 0 c-27 0 -33 6 -60 62 -39 81 -76 119 -150 154 -147 71 -330 8
-401 -137 -23 -47 -27 -68 -27 -137 0 -101 16 -141 81 -206 64 -63 161 -97
250 -87 76 8 173 57 217 109 47 55 43 72 -18 71 -36 0 -53 -6 -74 -26 -48 -44
-93 -62 -164 -62 -55 -1 -72 3 -107 26 -50 33 -71 63 -79 112 l-6 36 289 -2
289 -3 6 -55 c13 -124 49 -170 145 -190 64 -14 80 -6 70 34 -4 16 -20 33 -44
45 -57 29 -72 51 -75 112 l-2 54 105 5 105 5 3 37 c4 45 -2 47 -128 50 l-85 3
0 65 0 65 100 5 100 5 3 43 3 42 -99 0 c-113 0 -112 -1 -112 93 l0 47 -50 0
-50 0 0 -70z m-268 -179 c42 -29 81 -83 76 -107 -3 -15 -24 -17 -185 -21 -108
-2 -184 0 -187 5 -9 14 19 74 46 99 62 58 183 70 250 24z"/>
<path d="M8595 5032 c-138 -66 -204 -217 -161 -366 23 -78 97 -155 176 -181
137 -46 291 -2 365 105 15 21 24 44 20 49 -14 23 -81 12 -121 -20 -55 -45 -95
-59 -162 -59 -47 0 -67 6 -103 29 -46 28 -79 79 -79 120 0 21 3 21 244 21 282
0 270 -5 241 98 -42 147 -149 232 -293 232 -53 0 -80 -6 -127 -28z m208 -76
c44 -19 85 -65 93 -104 l7 -32 -188 0 c-167 0 -186 2 -181 16 3 9 6 20 6 24 0
18 65 83 95 96 40 17 127 17 168 0z"/>
<path d="M9287 5040 c-27 -10 -63 -30 -82 -44 l-34 -26 -3 32 c-3 37 -37 55
-82 44 l-26 -6 2 -278 3 -277 48 -3 c33 -2 47 1 47 10 4 300 11 341 68 401 46
48 93 67 171 67 l69 0 12 35 c19 58 11 65 -72 65 -47 -1 -90 -8 -121 -20z"/>
<path d="M3700 4611 c-179 -55 -235 -263 -108 -406 114 -130 321 -95 402 67
66 133 1 288 -143 336 -38 13 -113 14 -151 3z m166 -73 c59 -40 84 -85 84
-155 0 -87 -29 -137 -102 -174 -39 -20 -97 -28 -68 -9 8 5 24 10 36 10 33 0
99 64 112 108 17 56 15 90 -8 136 -27 55 -78 88 -143 93 -92 7 -159 -49 -172
-146 -12 -87 30 -151 125 -195 l35 -16 -35 6 c-160 27 -194 255 -52 345 65 41
123 40 188 -3z m-59 -48 c8 0 28 -13 44 -29 23 -23 29 -38 29 -71 0 -63 -21
-95 -73 -109 -110 -31 -184 77 -121 176 14 23 68 44 92 37 8 -2 20 -4 29 -4z"/>
</g>
</svg>
